<svg xmlns="http://www.w3.org/2000/svg" viewBox="0 0 45.05 51.02"><defs><style>.cls-1{fill:#fff;}.cls-2{fill:#009fe3;}</style></defs><title>pisellogo</title><g id="Layer_2" data-name="Layer 2"><g id="Layer_1-2" data-name="Layer 1"><path class="cls-1" d="M32.88,22.49c5.56,0,8.64,2.05,9.67,4a3.88,3.88,0,0,1-.33,4.17c-1.63,2.48-4.54,3.53-7.34,4.55-3.12,1.12-6.34,2.29-6.7,5.65-.47,4.25-1.82,6.85-4,7.72a6.24,6.24,0,0,1-2.31.44c-1.38,0-4.75-.49-6.45-5.11a19.19,19.19,0,0,1-.78-9.15c.76-5.56,4.62-9.53,10.87-11.19a29.05,29.05,0,0,1,7.37-1h0m0-2A31,31,0,0,0,25,21.56c-7.41,2-11.55,6.87-12.37,12.89a21.17,21.17,0,0,0,.89,10.12C15.19,49.16,18.64,51,21.87,51a8.3,8.3,0,0,0,3.07-.58c3.78-1.52,4.89-6,5.26-9.4.47-4.29,9.81-3.35,13.72-9.3,3.41-5.18-1.1-11.29-11-11.29Z"/><path class="cls-2" d="M6.32,0V2a2.15,2.15,0,0,1,.45,0c1.41.31,2.42,1.71,3.3,4.56.4,1.29.74,2.67,1.08,4,1,3.78,1.95,7.67,4.29,11a34.54,34.54,0,0,0,2.33,2.88c1.93,2.21,3.93,4.5,3.79,7s-1.41,2.85-2.62,2.85c-2.25,0-5.39-1.52-7.81-3.78A28.74,28.74,0,0,1,5,22.18C2.56,17,1.61,12.05,2.22,7.5,2.76,3.47,4.77,2,6.32,2V0m0,0C4,0,.93,1.8.2,7.23s.64,10.9,3,15.83a30.72,30.72,0,0,0,6.54,9.06c2.78,2.6,6.37,4.33,9.2,4.33,2.53,0,4.46-1.39,4.65-4.77.26-4.58-4.23-7.9-6.47-11.16C14.19,16.29,13.53,11,12,6,11.21,3.42,10,.69,7.2.09A4.1,4.1,0,0,0,6.32,0Z"/></g></g></svg>